<svg display="none" xmlns="http://www.w3.org/2000/svg">
	<symbol id="email" viewBox="0 0 477.867 477.867">
		<path d="M460.8,68.267H17.067C7.641,68.267,0,75.908,0,85.333v307.2c0,9.426,7.641,17.067,17.067,17.067H460.8
			c9.426,0,17.067-7.641,17.067-17.067v-307.2C477.867,75.908,470.226,68.267,460.8,68.267z M432.811,102.4L238.933,251.529
			L45.056,102.4H432.811z M443.733,375.467h-409.6V137.062L228.54,286.6c6.13,4.707,14.657,4.707,20.787,0l194.406-149.538V375.467z
			" />
	</symbol>

	<symbol id="mobile" viewBox="0 0 503.604 503.604">
		<path d="M337.324,0H167.192c-28.924,0-53.5,23.584-53.5,52.5v398.664c0,28.916,24.056,52.44,52.98,52.44l170.412-0.184
			c28.92,0,52.58-23.528,52.58-52.448l0.248-398.5C389.908,23.452,366.364,0,337.324,0z M227.68,31.476h49.36
			c4.336,0,7.868,3.52,7.868,7.868c0,4.348-3.532,7.868-7.868,7.868h-49.36c-4.348,0-7.868-3.52-7.868-7.868
			C219.812,34.996,223.332,31.476,227.68,31.476z M198.02,33.98c2.916-2.912,8.224-2.952,11.136,0c1.46,1.456,2.324,3.5,2.324,5.588
			c0,2.048-0.864,4.088-2.324,5.548c-1.452,1.46-3.504,2.32-5.548,2.32c-2.084,0-4.088-0.86-5.588-2.32
			c-1.452-1.456-2.28-3.5-2.28-5.548C195.736,37.48,196.568,35.436,198.02,33.98z M250.772,488.008
			c-12.984,0-23.544-10.568-23.544-23.548c0-12.984,10.56-23.548,23.544-23.548s23.544,10.564,23.544,23.548
			C274.316,477.44,263.752,488.008,250.772,488.008z M365.488,424.908H141.232V74.756h224.256V424.908z" />
	</symbol>

	<symbol id="facebook" viewBox="0 0 24 24">
		<path
			d="m15.997 3.985h2.191v-3.816c-.378-.052-1.678-.169-3.192-.169-3.159 0-5.323 1.987-5.323 5.639v3.361h-3.486v4.266h3.486v10.734h4.274v-10.733h3.345l.531-4.266h-3.877v-2.939c.001-1.233.333-2.077 2.051-2.077z" />
	</symbol>

	<symbol id="google-plus" viewBox="0 0 96.828 96.827">
		<path d="M62.617,0H39.525c-10.29,0-17.413,2.256-23.824,7.552c-5.042,4.35-8.051,10.672-8.051,16.912
			c0,9.614,7.33,19.831,20.913,19.831c1.306,0,2.752-0.134,4.028-0.253l-0.188,0.457c-0.546,1.308-1.063,2.542-1.063,4.468
			c0,3.75,1.809,6.063,3.558,8.298l0.22,0.283l-0.391,0.027c-5.609,0.384-16.049,1.1-23.675,5.787
			c-9.007,5.355-9.707,13.145-9.707,15.404c0,8.988,8.376,18.06,27.09,18.06c21.76,0,33.146-12.005,33.146-23.863
			c0.002-8.771-5.141-13.101-10.6-17.698l-4.605-3.582c-1.423-1.179-3.195-2.646-3.195-5.364c0-2.672,1.772-4.436,3.336-5.992
			l0.163-0.165c4.973-3.917,10.609-8.358,10.609-17.964c0-9.658-6.035-14.649-8.937-17.048h7.663c0.094,0,0.188-0.026,0.266-0.077
			l6.601-4.15c0.188-0.119,0.276-0.348,0.214-0.562C63.037,0.147,62.839,0,62.617,0z M34.614,91.535
			c-13.264,0-22.176-6.195-22.176-15.416c0-6.021,3.645-10.396,10.824-12.997c5.749-1.935,13.17-2.031,13.244-2.031
			c1.257,0,1.889,0,2.893,0.126c9.281,6.605,13.743,10.073,13.743,16.678C53.141,86.309,46.041,91.535,34.614,91.535z
			 M34.489,40.756c-11.132,0-15.752-14.633-15.752-22.468c0-3.984,0.906-7.042,2.77-9.351c2.023-2.531,5.487-4.166,8.825-4.166
			c10.221,0,15.873,13.738,15.873,23.233c0,1.498,0,6.055-3.148,9.22C40.94,39.337,37.497,40.756,34.489,40.756z" />
		<path
			d="M94.982,45.223H82.814V33.098c0-0.276-0.225-0.5-0.5-0.5H77.08c-0.276,0-0.5,0.224-0.5,0.5v12.125H64.473
			c-0.276,0-0.5,0.224-0.5,0.5v5.304c0,0.275,0.224,0.5,0.5,0.5H76.58V63.73c0,0.275,0.224,0.5,0.5,0.5h5.234
			c0.275,0,0.5-0.225,0.5-0.5V51.525h12.168c0.276,0,0.5-0.223,0.5-0.5v-5.302C95.482,45.446,95.259,45.223,94.982,45.223z" />
	</symbol>


	<symbol id="twitter" viewBox="0 0 512 512">
		<path d="M512,97.248c-19.04,8.352-39.328,13.888-60.48,16.576c21.76-12.992,38.368-33.408,46.176-58.016
			c-20.288,12.096-42.688,20.64-66.56,25.408C411.872,60.704,384.416,48,354.464,48c-58.112,0-104.896,47.168-104.896,104.992
			c0,8.32,0.704,16.32,2.432,23.936c-87.264-4.256-164.48-46.08-216.352-109.792c-9.056,15.712-14.368,33.696-14.368,53.056
			c0,36.352,18.72,68.576,46.624,87.232c-16.864-0.32-33.408-5.216-47.424-12.928c0,0.32,0,0.736,0,1.152
			c0,51.008,36.384,93.376,84.096,103.136c-8.544,2.336-17.856,3.456-27.52,3.456c-6.72,0-13.504-0.384-19.872-1.792
			c13.6,41.568,52.192,72.128,98.08,73.12c-35.712,27.936-81.056,44.768-130.144,44.768c-8.608,0-16.864-0.384-25.12-1.44
			C46.496,446.88,101.6,464,161.024,464c193.152,0,298.752-160,298.752-298.688c0-4.64-0.16-9.12-0.384-13.568
			C480.224,136.96,497.728,118.496,512,97.248z" />
	</symbol>

	<symbol id="pinterest" viewBox="0 0 24 24">
		<path
			d="m12.326 0c-6.579.001-10.076 4.216-10.076 8.812 0 2.131 1.191 4.79 3.098 5.633.544.245.472-.054.94-1.844.037-.149.018-.278-.102-.417-2.726-3.153-.532-9.635 5.751-9.635 9.093 0 7.394 12.582 1.582 12.582-1.498 0-2.614-1.176-2.261-2.631.428-1.733 1.266-3.596 1.266-4.845 0-3.148-4.69-2.681-4.69 1.49 0 1.289.456 2.159.456 2.159s-1.509 6.096-1.789 7.235c-.474 1.928.064 5.049.111 5.318.029.148.195.195.288.073.149-.195 1.973-2.797 2.484-4.678.186-.685.949-3.465.949-3.465.503.908 1.953 1.668 3.498 1.668 4.596 0 7.918-4.04 7.918-9.053-.016-4.806-4.129-8.402-9.423-8.402z" />
	</symbol>

	<symbol id="behance" viewBox="0 0 511.958 511.958">
		<path d="M210.624,240.619c10.624-5.344,18.656-11.296,24.16-17.728c9.792-11.584,14.624-26.944,14.624-45.984
				c0-18.528-4.832-34.368-14.496-47.648c-16.128-21.632-43.424-32.704-82.016-33.28H0v312.096h142.56
				c16.064,0,30.944-1.376,44.704-4.192c13.76-2.848,25.664-8.064,35.744-15.68c8.96-6.624,16.448-14.848,22.4-24.544
				c9.408-14.656,14.112-31.264,14.112-49.76c0-17.92-4.128-33.184-12.32-45.728C238.912,255.627,226.752,246.443,210.624,240.619z
				 M63.072,150.187h68.864c15.136,0,27.616,1.632,37.408,4.864c11.328,4.704,16.992,14.272,16.992,28.864
				c0,13.088-4.32,22.24-12.864,27.392c-8.608,5.152-19.776,7.744-33.472,7.744H63.072V150.187z M171.968,348.427
				c-7.616,3.68-18.336,5.504-32.064,5.504H63.072v-83.232h77.888c13.568,0.096,24.128,1.888,31.68,5.248
				c13.44,6.08,20.128,17.216,20.128,33.504C192.768,328.651,185.856,341.579,171.968,348.427z" />
		<rect x="327.168" y="110.539" width="135.584" height="38.848" />
		<path
			d="M509.856,263.851c-2.816-18.08-9.024-33.984-18.688-47.712c-10.592-15.552-24.032-26.944-40.384-34.144
				c-16.288-7.232-34.624-10.848-55.04-10.816c-34.272,0-62.112,10.72-83.648,32c-21.472,21.344-32.224,52.032-32.224,92.032
				c0,42.656,11.872,73.472,35.744,92.384c23.776,18.944,51.232,28.384,82.4,28.384c37.728,0,67.072-11.232,88.032-33.632
				c13.408-14.144,20.992-28.064,22.656-41.728H446.24c-3.616,6.752-7.808,12.032-12.608,15.872
				c-8.704,7.04-20.032,10.56-33.92,10.56c-13.216,0-24.416-2.912-33.76-8.704c-15.424-9.28-23.488-25.536-24.512-48.672h170.464
				C512.16,289.739,511.52,274.411,509.856,263.851z M342.976,269.835c2.24-15.008,7.68-26.912,16.32-35.712
				c8.64-8.768,20.864-13.184,36.512-13.216c14.432,0,26.496,4.128,36.32,12.416c9.696,8.352,15.168,20.48,16.288,36.512H342.976z" />
	</symbol>

	<symbol id="dribbble" viewBox="0 0 512 512">
		<path
			d="m511.035156 278.210938c.628906-7.347657.964844-14.75.964844-22.207032 0-68.382812-26.628906-132.671875-74.980469-181.023437-48.351562-48.351563-112.640625-74.980469-181.019531-74.980469s-132.667969 26.628906-181.019531 74.980469c-48.351563 48.351562-74.980469 112.640625-74.980469 181.023437 0 68.378906 26.628906 132.664063 74.980469 181.015625 48.351562 48.351563 112.640625 74.980469 181.019531 74.980469s132.667969-26.628906 181.019531-74.980469c42.683594-42.683593 68.425781-97.792969 73.878907-157.167969.074218-.546874.125-1.09375.136718-1.640624zm-29.058594-20.527344c-30.789062-8.699219-62.660156-13.113282-95.015624-13.113282-21.824219 0-43.34375 2.039063-64.332032 5.96875-3.300781-7.691406-6.691406-15.347656-10.1875-22.960937-4.707031-10.238281-9.605468-20.386719-14.660156-30.460937 48.480469-20.945313 94-47.992188 135.820312-80.726563 30.300782 38.460937 48.398438 86.960937 48.398438 139.613281 0 .5625-.019531 1.117188-.023438 1.679688zm-68.519531-163.636719c-39.925781 30.980469-83.570312 56.535156-129.675781 76.214844-25.089844-46.359375-53.925781-90.730469-86.175781-132.597657 18.636719-4.988281 38.207031-7.664062 58.394531-7.664062 61.167969 0 116.726562 24.4375 157.457031 64.046875zm-245.804687-46.054687c33.074218 42.023437 62.492187 86.703124 87.976562 133.449218-64.816406 23.828125-133.8125 36.339844-203.691406 36.339844-6.210938 0-12.4375-.105469-18.640625-.296875 13.183594-76.449219 64.894531-139.878906 134.355469-169.492187zm-137.652344 208.011718c0-2.886718.070312-5.753906.179688-8.613281 7.234374.25 14.507812.390625 21.753906.390625 73.035156 0 144.539062-12.582031 212.53125-37.390625 1.777344-.648437 3.550781-1.3125 5.320312-1.976563 8.144532 16.144532 15.828125 32.511719 23.042969 49.078126-83.253906 23.3125-155.867187 77.078124-202.429687 152.125-37.457032-40.347657-60.398438-94.347657-60.398438-153.613282zm82.722656 174.644532c43.035156-72.402344 112.246094-123.957032 191.746094-145.234376 22.339844 56.078126 39.355469 114.257813 50.65625 173.652344-29.945312 14.675782-63.589844 22.933594-99.125 22.933594-54.339844 0-104.253906-19.28125-143.277344-51.351562zm269.855469 12.488281c-11.277344-56.035157-27.449219-111.003907-48.296875-164.1875 17.238281-2.882813 34.847656-4.378907 52.679688-4.378907 31.648437 0 62.78125 4.609376 92.726562 13.699219-9.230469 64.28125-45.601562 119.917969-97.109375 154.867188zm0 0" />
	</symbol>

	<symbol id="search" viewBox="0 0 511.999 511.999">
		<path d="M508.874,478.708L360.142,329.976c28.21-34.827,45.191-79.103,45.191-127.309c0-111.75-90.917-202.667-202.667-202.667
			S0,90.917,0,202.667s90.917,202.667,202.667,202.667c48.206,0,92.482-16.982,127.309-45.191l148.732,148.732
			c4.167,4.165,10.919,4.165,15.086,0l15.081-15.082C513.04,489.627,513.04,482.873,508.874,478.708z M202.667,362.667
			c-88.229,0-160-71.771-160-160s71.771-160,160-160s160,71.771,160,160S290.896,362.667,202.667,362.667z" />
	</symbol>
</svg>